<svg width="1024" height="1024" viewBox="0 0 1024 1024" fill="none" xmlns="http://www.w3.org/2000/svg">
<path d="M195.2 195.199C207.202 183.201 223.478 176.461 240.448 176.461C257.419 176.461 273.694 183.201 285.696 195.199L512 421.503L738.304 195.199C750.375 183.541 766.541 177.09 783.322 177.236C800.102 177.382 816.155 184.113 828.021 195.979C839.887 207.845 846.618 223.897 846.763 240.678C846.909 257.458 840.458 273.625 828.8 285.695L602.496 511.999L828.8 738.303C840.458 750.374 846.909 766.54 846.763 783.321C846.618 800.102 839.887 816.154 828.021 828.02C816.155 839.886 800.102 846.617 783.322 846.762C766.541 846.908 750.375 840.457 738.304 828.799L512 602.495L285.696 828.799C273.626 840.457 257.459 846.908 240.679 846.762C223.898 846.617 207.846 839.886 195.98 828.02C184.114 816.154 177.383 800.102 177.237 783.321C177.091 766.54 183.542 750.374 195.2 738.303L421.504 511.999L195.2 285.695C183.202 273.694 176.462 257.418 176.462 240.447C176.462 223.477 183.202 207.201 195.2 195.199V195.199Z" fill="white"/>
</svg>
